<svg width="20" height="20" viewBox="0 0 20 20" fill="none" xmlns="http://www.w3.org/2000/svg">
<path d="M13.3335 13.3332L15.8335 6.6665L18.3335 13.3332C17.6085 13.8748 16.7335 14.1665 15.8335 14.1665C14.9335 14.1665 14.0585 13.8748 13.3335 13.3332Z" stroke="#6B4423" stroke-width="1.66667" stroke-linecap="round" stroke-linejoin="round"/>
<path d="M1.6665 13.3332L4.1665 6.6665L6.6665 13.3332C5.9415 13.8748 5.0665 14.1665 4.1665 14.1665C3.2665 14.1665 2.3915 13.8748 1.6665 13.3332Z" stroke="#6B4423" stroke-width="1.66667" stroke-linecap="round" stroke-linejoin="round"/>
<path d="M5.8335 17.5H14.1668" stroke="#6B4423" stroke-width="1.66667" stroke-linecap="round" stroke-linejoin="round"/>
<path d="M10 2.5V17.5" stroke="#6B4423" stroke-width="1.66667" stroke-linecap="round" stroke-linejoin="round"/>
<path d="M2.5 5.83317H4.16667C5.83333 5.83317 8.33333 4.99984 10 4.1665C11.6667 4.99984 14.1667 5.83317 15.8333 5.83317H17.5" stroke="#6B4423" stroke-width="1.66667" stroke-linecap="round" stroke-linejoin="round"/>
</svg>
